#define lambda_width 18
#define lambda_height 16
static unsigned short lambda_bits[] = {
   0x0000, 0x0000, 0x0060, 0x0000, 0x00c0, 0x0000, 0x00c0, 0x0000, 0x01c0,
   0x0000, 0x0180, 0x0000, 0x0180, 0x0000, 0x0380, 0x0000, 0x0300, 0x0000,
   0x0380, 0x0000, 0x06c0, 0x0000, 0x0660, 0x0000, 0x0e30, 0x0000, 0x0c1c,
   0x0000, 0x0c0c, 0x0000, 0x0800, 0x0000 };
