#define test_width 12
#define test_height 11
static unsigned short test_bits[] = {
   0x00c0, 0x00b0, 0x0080, 0x0080, 0x00c0, 0x0040, 0x0060, 0x0050, 0x0048,
   0x034c, 0x0186 };
